<?xml version="1.0" ?><!DOCTYPE svg  PUBLIC '-//W3C//DTD SVG 1.1//EN'  'http://www.w3.org/Graphics/SVG/1.1/DTD/svg11.dtd'><svg enable-background="new 0 0 32 32" height="32px" id="Capa_1" version="1.1" viewBox="0 0 32 32" width="32px" xml:space="preserve" xmlns="http://www.w3.org/2000/svg" xmlns:xlink="http://www.w3.org/1999/xlink"><path d="M16,2c7.72,0,14,6.28,14,14s-6.28,14-14,14c-6.11,0-11.47-3.91-13.34-9.73c-0.17-0.53,0.13-1.09,0.65-1.26  c0.53-0.16,1.09,0.13,1.26,0.65C6.16,24.65,10.76,28,16,28c6.62,0,12-5.38,12-12S22.62,4,16,4C9.72,4,4.55,8.85,4.04,15h17.38  c-0.93-1.11-2.89-2.78-4.97-4.17c-0.47-0.3-0.59-0.92-0.28-1.38c0.3-0.46,0.93-0.59,1.38-0.28C19.49,10.46,24,13.71,24,16  s-4.51,5.54-6.45,6.83c-0.45,0.31-1.08,0.18-1.38-0.28c-0.31-0.45-0.19-1.08,0.28-1.38c2.08-1.39,4.04-3.06,4.97-4.17H3  c-0.55,0-1-0.45-1-1c0-0.34,0.01-0.67,0.04-1C2.55,7.74,8.62,2,16,2z"/><g/><g/><g/><g/><g/><g/></svg>