<svg width="82" height="20" viewBox="0 0 82 20" fill="none" xmlns="http://www.w3.org/2000/svg">
<path d="M16.8732 6.35368H11.2072C11.1901 5.80388 10.976 5.37435 10.5651 5.06509C10.1541 4.75583 9.58906 4.6012 8.86989 4.6012C7.63703 4.6012 7.0206 4.97918 7.0206 5.73516C7.0206 5.94133 7.12334 6.13892 7.32881 6.32791C7.53429 6.5169 7.81682 6.68012 8.17641 6.81757C8.55311 6.93784 8.89558 7.04093 9.20379 7.12683C9.51201 7.21274 9.85447 7.29865 10.2312 7.38455C10.625 7.45328 10.8562 7.49623 10.9247 7.51341C11.6438 7.7024 12.2603 7.88281 12.7739 8.05462C13.2876 8.22643 13.8441 8.47556 14.4434 8.802C15.0428 9.11126 15.5222 9.46348 15.8818 9.85865C16.2585 10.2366 16.5753 10.7263 16.8321 11.3276C17.089 11.9118 17.2174 12.5733 17.2174 13.3121C17.2174 15.2192 16.4982 16.7397 15.0599 17.8737C13.6215 18.9905 11.6781 19.5488 9.22948 19.5488C6.67814 19.5488 4.66618 18.9647 3.19359 17.7964C1.72101 16.6109 0.967596 14.9958 0.93335 12.9513H6.55828C6.64389 14.5319 7.59422 15.3223 9.40927 15.3223C10.1113 15.3223 10.6678 15.1848 11.0788 14.9099C11.4897 14.635 11.6952 14.2656 11.6952 13.8017C11.6952 13.5097 11.5753 13.2605 11.3356 13.0544C11.113 12.8654 10.6849 12.6592 10.0514 12.4358C9.41783 12.2125 8.66441 11.9805 7.79114 11.74C6.93498 11.4823 6.39561 11.3105 6.17301 11.2246C5.43672 10.9668 4.82885 10.7177 4.3494 10.4772C3.86996 10.2366 3.40763 9.92737 2.96243 9.54938C2.51723 9.15422 2.18333 8.68173 1.96073 8.13193C1.75526 7.56495 1.65252 6.90348 1.65252 6.14751C1.65252 4.42938 2.32888 3.0463 3.6816 1.99824C5.05145 0.933008 6.84081 0.400391 9.04968 0.400391C11.3784 0.400391 13.1849 0.924418 14.4691 1.97247C15.7705 3.00334 16.839 4.46375 16.8732 6.35368Z" fill="#002F55"/>
<path d="M31.6417 13.8017C31.402 15.5886 30.6657 16.9803 29.4328 17.9768C28.2171 18.9733 26.6417 19.4715 24.7068 19.4715C22.5665 19.4715 20.8199 18.8358 19.4672 17.5644C18.1316 16.293 17.4638 14.635 17.4638 12.5905C17.4638 10.4772 18.1316 8.77623 19.4672 7.48764C20.8028 6.18187 22.5579 5.52898 24.7325 5.52898C26.6503 5.52898 28.2256 6.01865 29.4585 6.99797C30.7085 7.9773 31.402 9.26589 31.5389 10.8637H26.6846C26.6161 10.3311 26.402 9.91019 26.0424 9.60093C25.7 9.29167 25.2805 9.13703 24.7839 9.13703C23.2942 9.13703 22.5493 10.2968 22.5493 12.6162C22.5493 14.7123 23.2856 15.7604 24.7582 15.7604C25.9055 15.7604 26.5818 15.1075 26.7873 13.8017H31.6417Z" fill="#002F55"/>
<path d="M37.198 0.786969V7.51341C38.2254 6.19046 39.5781 5.52898 41.2561 5.52898C44.441 5.52898 46.0335 7.20415 46.0335 10.5545V19.1365H40.9993V11.7915C40.9993 11.0871 40.8709 10.5459 40.614 10.1679C40.3572 9.78992 39.8863 9.60093 39.2014 9.60093C37.8658 9.60093 37.198 10.5115 37.198 12.3327V19.1365H32.2152V0.786969H37.198Z" fill="#002F55"/>
<path d="M53.766 5.45167C55.9063 5.45167 57.6443 6.09596 58.9799 7.38455C60.3155 8.67314 60.9833 10.3569 60.9833 12.4358C60.9833 14.5319 60.307 16.2415 58.9543 17.5644C57.6015 18.8702 55.855 19.5231 53.7146 19.5231C51.5571 19.5231 49.802 18.8702 48.4492 17.5644C47.0965 16.2586 46.4202 14.5663 46.4202 12.4874C46.4202 10.4084 47.0965 8.7161 48.4492 7.41032C49.8191 6.10455 51.5913 5.45167 53.766 5.45167ZM53.6632 9.13703C52.2249 9.13703 51.5057 10.2538 51.5057 12.4874C51.5057 14.7381 52.242 15.8635 53.7146 15.8635C55.1701 15.8635 55.8978 14.7209 55.8978 12.4358C55.8978 10.2366 55.1529 9.13703 53.6632 9.13703Z" fill="#002F55"/>
<path d="M68.6698 5.45167C70.8102 5.45167 72.5482 6.09596 73.8838 7.38455C75.2194 8.67314 75.8872 10.3569 75.8872 12.4358C75.8872 14.5319 75.2108 16.2415 73.8581 17.5644C72.5054 18.8702 70.7589 19.5231 68.6185 19.5231C66.461 19.5231 64.7058 18.8702 63.3531 17.5644C62.0004 16.2586 61.324 14.5663 61.324 12.4874C61.324 10.4084 62.0004 8.7161 63.3531 7.41032C64.723 6.10455 66.4952 5.45167 68.6698 5.45167ZM68.5671 9.13703C67.1288 9.13703 66.4096 10.2538 66.4096 12.4874C66.4096 14.7381 67.1459 15.8635 68.6185 15.8635C70.0739 15.8635 70.8017 14.7209 70.8017 12.4358C70.8017 10.2366 70.0568 9.13703 68.5671 9.13703Z" fill="#002F55"/>
<path d="M81.7403 0.786969V19.1365H76.6547V0.786969H81.7403Z" fill="#002F55"/>
</svg>
