<svg width="71" height="20" viewBox="0 0 71 20" fill="none" xmlns="http://www.w3.org/2000/svg">
<path d="M18.5481 9.08549V19.188H14.9779L14.7982 17.3067C13.5139 18.8358 11.7503 19.6004 9.50714 19.6004C6.92155 19.6004 4.82398 18.7156 3.21441 16.9459C1.60484 15.1762 0.800049 12.8654 0.800049 10.0133C0.800049 7.19556 1.66477 4.89328 3.3942 3.10643C5.14075 1.3024 7.38387 0.400391 10.1236 0.400391C12.2126 0.400391 14.0276 1.0361 15.5687 2.3075C17.1269 3.56173 18.0259 5.21113 18.2656 7.25569H12.8718C12.4951 5.82965 11.5448 5.11663 10.0208 5.11663C7.64072 5.11663 6.45067 6.84335 6.45067 10.2968C6.45067 11.8946 6.77601 13.1059 7.42668 13.9306C8.07736 14.7553 9.03625 15.1676 10.3034 15.1676C12.0157 15.1676 13.0602 14.4546 13.4369 13.0286H11.0225V9.08549H18.5481Z" fill="url(#paint0_linear)"/>
<path d="M33.5561 5.88979V19.188H28.6247V17.4871C27.7514 18.8788 26.3987 19.5746 24.5665 19.5746C21.3474 19.5746 19.7378 17.7534 19.7378 14.111V5.88979H24.8748V13.544C24.8748 14.7467 25.4484 15.348 26.5956 15.348C27.3662 15.348 27.8713 15.1075 28.111 14.6264C28.3507 14.1454 28.4706 13.4839 28.4706 12.642V5.88979H33.5561Z" fill="url(#paint1_linear)"/>
<path d="M39.9885 0.838512V4.39502H34.903V0.838512H39.9885ZM39.9885 5.88979V19.188H34.903V5.88979H39.9885Z" fill="url(#paint2_linear)"/>
<path d="M55.2049 0.838512V19.188H50.3505V17.7448C49.4429 18.9303 48.2101 19.5231 46.6519 19.5231C44.8711 19.5231 43.4413 18.8788 42.3626 17.5902C41.3009 16.3016 40.7701 14.5835 40.7701 12.4358C40.7701 10.3569 41.2752 8.69032 42.2855 7.4361C43.3129 6.18187 44.6742 5.55475 46.3693 5.55475C47.8762 5.55475 49.1347 6.1475 50.145 7.33301V0.838512H55.2049ZM48.0902 9.4463C46.6176 9.4463 45.8813 10.4686 45.8813 12.5131C45.8813 14.489 46.6176 15.4769 48.0902 15.4769C48.8094 15.4769 49.3573 15.2192 49.734 14.7037C50.1279 14.1883 50.3248 13.4495 50.3248 12.4874C50.3248 11.508 50.1279 10.7607 49.734 10.2452C49.3573 9.71261 48.8094 9.4463 48.0902 9.4463Z" fill="url(#paint3_linear)"/>
<path d="M70.2416 15.1934C69.8477 16.6023 68.9916 17.6847 67.6731 18.4407C66.3718 19.1966 64.942 19.5746 63.3838 19.5746C61.2263 19.5746 59.4369 18.9647 58.0157 17.7448C56.5945 16.525 55.8839 14.8412 55.8839 12.6935C55.8839 10.6146 56.5688 8.90509 57.9387 7.56495C59.3256 6.22482 61.0807 5.55475 63.204 5.55475C65.43 5.55475 67.2022 6.25059 68.5207 7.64227C69.8563 9.03395 70.5241 10.9067 70.5241 13.2605V13.6471H60.764C60.7982 14.489 61.0379 15.1419 61.4831 15.6058C61.9454 16.0697 62.5704 16.3016 63.3581 16.3016C64.2999 16.3016 65.0105 15.9322 65.4899 15.1934H70.2416ZM65.567 11.0957C65.43 9.58375 64.6509 8.82777 63.2297 8.82777C61.8598 8.82777 61.0465 9.58375 60.7896 11.0957H65.567Z" fill="url(#paint4_linear)"/>
<defs>
<linearGradient id="paint0_linear" x1="0.80005" y1="19.6004" x2="10.597" y2="-16.0389" gradientUnits="userSpaceOnUse">
<stop stop-color="#A34EFF"/>
<stop offset="1" stop-color="#7C2AD3"/>
</linearGradient>
<linearGradient id="paint1_linear" x1="0.80005" y1="19.6004" x2="10.597" y2="-16.0389" gradientUnits="userSpaceOnUse">
<stop stop-color="#A34EFF"/>
<stop offset="1" stop-color="#7C2AD3"/>
</linearGradient>
<linearGradient id="paint2_linear" x1="0.80005" y1="19.6004" x2="10.597" y2="-16.0389" gradientUnits="userSpaceOnUse">
<stop stop-color="#A34EFF"/>
<stop offset="1" stop-color="#7C2AD3"/>
</linearGradient>
<linearGradient id="paint3_linear" x1="0.80005" y1="19.6004" x2="10.597" y2="-16.0389" gradientUnits="userSpaceOnUse">
<stop stop-color="#A34EFF"/>
<stop offset="1" stop-color="#7C2AD3"/>
</linearGradient>
<linearGradient id="paint4_linear" x1="0.80005" y1="19.6004" x2="10.597" y2="-16.0389" gradientUnits="userSpaceOnUse">
<stop stop-color="#A34EFF"/>
<stop offset="1" stop-color="#7C2AD3"/>
</linearGradient>
</defs>
</svg>
